<?xml version="1.0" encoding="utf-8"?>
<!-- Generator: Adobe Illustrator 19.2.1, SVG Export Plug-In . SVG Version: 6.00 Build 0)  -->
<svg version="1.1" id="Layer_1" xmlns="http://www.w3.org/2000/svg" xmlns:xlink="http://www.w3.org/1999/xlink" x="0px" y="0px"
	 viewBox="0 0 358.4 138.2" style="enable-background:new 0 0 358.4 138.2;" xml:space="preserve">
<style type="text/css">
	.st0{stroke:#000000;stroke-width:0.75;stroke-miterlimit:10;}
</style>
<g>
	<path class="st0" d="M90.9,98.6c0,0.5-0.1,1-0.3,1.5c-0.2,0.4-0.5,0.6-1,0.6c-0.5,0-0.9-0.2-1.1-0.6c-0.2-0.4-0.3-0.8-0.3-1.2
		c-0.1-3.4-0.5-6.9-1.2-10.5c-0.8-3.6-1.4-7.5-2.1-11.5c0-1.4,0.2-2.9,0.5-4.4c0.3-1.5,0.7-3,1.1-4.3c0.5-1.6,1-3.1,1.6-4.6
		c0-0.1-0.1-0.2-0.2-0.2c-0.1,0-0.3,0.1-0.6,0.2c-2,1.5-4.3,2.8-6.8,4c-2.5,1.1-5.1,2.1-7.9,2.8c-2.3,2.6-5.1,5-8.4,7.1
		c-3.3,2.1-7.1,3.7-11.5,5c-0.2,0-0.3,0-0.3-0.1c-0.1-0.1-0.1-0.1-0.1-0.2c0-0.2,0.1-0.5,0.3-0.7c0.2-0.3,0.5-0.5,0.9-0.6
		c3.6-1.1,6.9-2.5,9.7-4.2c2.8-1.7,5.2-3.6,7.2-5.7c-4.3,0.9-8.5,1.4-12.8,1.4c-6.1,0-11.3-0.9-15.6-2.6c-4.3-1.7-7.9-3.9-10.8-6.6
		c-2.8-2.7-4.9-5.6-6.3-8.9c-1.3-3.3-2-6.4-2-9.5c0-4,0.9-7.5,2.6-10.5c1.7-3,3.9-5.4,6.6-7.4c2.7-1.9,5.7-3.4,9.2-4.3
		c3.4-0.9,6.8-1.4,10.2-1.4c4.6,0,8.7,0.8,12.3,2.3c3.6,1.6,6.6,3.7,9.1,6.3c2.5,2.6,4.3,5.7,5.6,9c1.3,3.4,1.9,6.9,1.9,10.6
		c0,3.3-0.5,6.6-1.6,9.9c-1.1,3.3-2.7,6.3-4.9,9.2c2-0.6,3.9-1.3,5.6-2c1.7-0.8,3.2-1.5,4.5-2.2c1.3-0.7,2.4-1.4,3.2-2
		c0.8-0.6,1.4-1,1.6-1.3c0.4-0.4,0.7-0.7,1-0.8c0.2-0.1,0.4-0.2,0.5-0.2c0.1,0,0.2,0.1,0.3,0.2c0.1,0.1,0.1,0.1,0.1,0.2
		c0,0.3-0.2,0.7-0.6,1.2c-0.7,0.9-1.2,1.9-1.6,3c-0.4,1.2-0.7,2.4-0.9,3.7c-0.2,1.3-0.3,2.6-0.3,3.9c0,1.3,0,2.5,0,3.6
		c0.1,1.7,0.4,3.5,0.7,5.4c0.4,1.9,0.8,3.8,1.2,5.8c0.4,2,0.8,3.9,1.2,5.9C90.7,94.9,90.9,96.8,90.9,98.6z M78.7,50.7
		c0-3.6-0.7-7-2-10.3c-1.3-3.3-3.3-6.3-5.8-8.8c-2.5-2.6-5.7-4.6-9.5-6.2c-3.8-1.6-8.1-2.3-12.9-2.3c-3.3,0-6.4,0.6-9.3,1.7
		c-2.9,1.1-5.4,2.6-7.6,4.5c-2.1,1.9-3.8,4-5,6.3c-1.2,2.3-1.8,4.7-1.8,7.1c0,5.1,1.2,9.5,3.5,13s5.3,6.4,9,8.6
		c3.6,2.2,7.7,3.8,12.1,4.7c4.4,1,8.7,1.5,12.9,1.5c1.7,0,3.3-0.1,4.9-0.3c1.6-0.2,3.2-0.5,4.7-0.9c2.3-2.8,4-5.8,5.1-8.9
		C78.1,57.2,78.7,54,78.7,50.7z"/>
	<path class="st0" d="M100.2,60c0,0.4-0.1,0.8-0.3,1c-0.2,0.2-0.4,0.3-0.7,0.3c-0.3,0-0.6-0.1-0.9-0.4c-0.3-0.3-0.5-0.7-0.5-1.2
		c-0.1-0.2,0-0.4,0.1-0.6c0.2-0.4,0.6-0.6,1-0.6c0.4,0,0.7,0.2,1,0.5C100.1,59.1,100.2,59.5,100.2,60z M128.1,70.2
		c-0.5,0.4-1.1,0.9-1.8,1.3c-0.7,0.4-1.3,0.8-2,1c-2.4,1.1-4.8,1.9-7.1,2.3c-2.3,0.5-4.4,0.7-6.4,0.7c-3.3,0-6-0.7-8-2.1
		c-2.1-1.4-3.1-3.6-3.1-6.5c0-0.2,0.1-0.3,0.3-0.5c0.2-0.2,0.5-0.3,0.7-0.3c0.2,0,0.3,0.1,0.3,0.2c0.1,1.2,0.5,2.3,1.2,3.2
		c0.7,0.9,1.6,1.7,2.7,2.3c1.1,0.6,2.4,1.1,3.8,1.4c1.4,0.3,3,0.4,4.6,0.4c3.5,0,7-0.7,10.5-2.1c0.6-0.3,1.3-0.6,1.9-0.8
		c0.6-0.3,1.2-0.7,1.8-1.1L128.1,70.2z"/>
	<path class="st0" d="M164,107.4c0,0.9-0.1,1.8-0.3,2.7c-0.2,0.9-0.5,1.7-1,2.5c-0.5,0.8-1.1,1.4-1.9,1.9c-0.8,0.5-1.8,0.7-3,0.7
		c-2.3,0-4.7-0.7-7-2.2c-2.4-1.5-4.5-3.4-6.5-5.8c-1.9-2.4-3.5-5.1-4.7-8c-1.2-3-1.8-5.9-1.8-8.9c0-2.5,0.6-4.7,1.8-6.5
		c1.2-1.8,2.8-3.4,4.7-4.9c-2.6-1.2-5.5-1.9-8.6-2.2c-0.3,0.1-0.7,0.1-1,0.1c-0.3,0-0.7,0-1,0c-0.5,0-1-0.1-1.5-0.2
		c-0.5-0.1-0.8-0.4-0.8-0.9c0-0.2,0.1-0.4,0.3-0.6c0.2-0.2,0.7-0.4,1.3-0.5c0.6-0.1,1.4-0.2,2.3-0.4c1-0.2,1.9-0.5,2.9-0.8
		c0.9-0.3,1.7-0.8,2.4-1.4c0.7-0.6,1-1.3,1-2.3c0-0.7-0.4-1.2-1.2-1.6c-0.8-0.4-1.7-0.7-2.8-0.8c-1.1-0.2-2.3-0.3-3.5-0.4
		c-1.2-0.1-2.3-0.1-3.3-0.1c-0.4,0-0.8,0-1.2,0c-0.4,0-0.7,0-1,0.1c-1-0.1-1.5-0.3-1.5-0.5c0-0.2,0.1-0.3,0.3-0.5
		c0.3-0.4,0.6-0.7,1-1c0.4-0.3,0.8-0.5,1.3-0.5c2.5,0,4.7,0.2,6.3,0.5c1.7,0.3,3,0.7,4.1,1.2c1,0.5,1.8,1,2.2,1.6
		c0.4,0.6,0.7,1.1,0.7,1.6c0,0.8-0.3,1.5-0.8,2.1c-0.5,0.6-1.1,1.1-1.8,1.6c-0.7,0.4-1.3,0.8-1.8,1s-0.8,0.4-0.8,0.6
		c0,0.1,0.1,0.2,0.3,0.3c2.5,0.6,4.9,1.6,7.2,2.9c1.9-1.3,4-2.7,6.3-3.9s4.5-2.7,6.8-4.2l0.5,0.5c-2.2,1.5-4.4,2.9-6.6,4.2
		c-2.2,1.3-4.2,2.6-6.1,4c2.4,1.5,4.7,3.2,6.9,5.2c2.1,2,4,4.3,5.6,6.8c1.6,2.5,2.8,5.2,3.7,8C163.6,101.3,164,104.3,164,107.4z
		 M162.2,106.8c0-2.4-0.4-4.9-1.1-7.5c-0.7-2.6-1.8-5.2-3.3-7.7c-1.4-2.5-3.2-4.8-5.3-7c-2.1-2.2-4.5-3.9-7.2-5.3
		c-1.7,1.4-3.1,2.9-4.1,4.5c-1.1,1.6-1.6,3.5-1.6,5.6c0,2.7,0.5,5.4,1.5,8.2c1,2.7,2.4,5.2,4,7.5c1.7,2.2,3.6,4.1,5.8,5.5
		c2.2,1.4,4.4,2.1,6.7,2.1c1.6,0,2.8-0.6,3.5-1.7C161.8,109.7,162.2,108.4,162.2,106.8z"/>
	<path class="st0" d="M189.4,70.2c-1.2,0.9-2.5,1.7-4,2.4c-1.5,0.7-3.2,1.3-4.9,1.8c-1.7,0.5-3.5,0.9-5.3,1.1
		c-1.8,0.3-3.5,0.4-5.1,0.4c-1.2,0-2.6-0.2-4.3-0.5c-1.6-0.4-3.2-0.9-4.6-1.6c-1.5-0.7-2.7-1.7-3.7-2.8c-1-1.2-1.5-2.5-1.5-4.2
		c0-1,0.4-1.8,1.2-2.5c0.8-0.7,1.7-1.1,2.7-1.1c0.4,0,0.9,0.1,1.5,0.4c0.6,0.2,1.1,0.6,1.7,1c0.5,0.4,1,0.8,1.4,1.3
		c0.4,0.5,0.6,0.9,0.6,1.4c0,0.8-0.3,1.5-1,2.1c-0.6,0.6-1.6,1.2-2.8,1.9c1.5,0.8,3.3,1.3,5.4,1.8c2.1,0.4,4.6,0.6,7.3,0.6
		c1,0,2.1-0.1,3.4-0.2c1.3-0.1,2.6-0.3,3.9-0.6c1.3-0.3,2.6-0.7,4-1.2c1.3-0.5,2.5-1.2,3.6-2L189.4,70.2z M163.4,68.4
		c0-0.4-0.2-0.9-0.6-1.3c-0.4-0.4-0.8-0.8-1.3-1.2c-0.5-0.4-1.1-0.7-1.6-0.9c-0.6-0.2-1-0.3-1.3-0.3c-0.5,0-0.8,0-1,0.1
		c-0.2,0.1-0.3,0.3-0.3,0.8c0,2.1,1.2,3.9,3.6,5.3c0.6-0.3,1.2-0.7,1.8-1.1C163.1,69.4,163.4,69,163.4,68.4z"/>
	<path class="st0" d="M251.4,70.2c-0.5,0.4-1.1,0.9-1.8,1.3c-0.7,0.4-1.3,0.8-2,1c-2.4,1.1-4.8,1.9-7.1,2.3
		c-2.3,0.5-4.4,0.7-6.4,0.7c-2.4,0-4.5-0.4-6.3-1.1c-1.8-0.8-3.1-1.9-3.9-3.4c-0.7,1.6-1.7,2.8-2.9,3.8c-1.2,1-2.6,1.5-4.1,1.5
		c-1.9,0-3.6-0.3-4.9-0.9c-1.4-0.6-2.5-1.3-3.5-2.1c-1-0.9-1.9-1.9-2.6-3c-0.1,0-0.2,0-0.2,0.1c-0.1,0.3-0.3,0.7-0.7,1.4
		c-0.3,0.7-0.7,1.3-1.3,2c-0.5,0.7-1.2,1.3-2,1.8c-0.8,0.5-1.7,0.8-2.7,0.8c-1.9,0-3.6-0.3-5-1c-1.4-0.6-2.6-1.4-3.6-2.2
		c-1-0.8-1.7-1.7-2.3-2.6s-0.8-1.6-0.8-2.1c0.3-1.1,0.6-1.8,0.8-2.1c0.3-0.3,0.5-0.4,0.7-0.4c0.1,0,0.3,0.2,0.6,0.6
		c0.3,0.4,0.6,1.1,1,2.2c0.2,0.6,0.6,1.2,1.2,1.8c0.6,0.6,1.3,1.2,2,1.7c0.8,0.5,1.6,0.9,2.5,1.3c0.9,0.3,1.8,0.5,2.7,0.5
		c1.4,0,2.5-0.2,3.3-0.7c0.8-0.5,1.4-1,1.8-1.7c0.4-0.6,0.7-1.3,0.7-2c0.1-0.7,0.1-1.2,0.1-1.6c0-0.6,0.1-1,0.3-1.2
		c0.2-0.2,0.4-0.2,0.6-0.2c0.5,0,0.8,0.2,1,0.6c0.2,0.4,0.3,0.7,0.4,1c0.3,0.9,0.9,1.7,1.6,2.4c0.7,0.7,1.5,1.2,2.3,1.7
		c0.9,0.5,1.8,0.8,2.7,1c1,0.2,1.9,0.4,2.7,0.4c2.5,0,4.2-0.4,5.2-1.3c1-0.8,1.5-1.8,1.5-3c-0.2-0.7-0.3-1.6-0.3-2.6
		c0-0.2,0.1-0.3,0.3-0.5c0.2-0.2,0.5-0.3,0.7-0.3c0.2,0,0.3,0.1,0.3,0.2c0.1,1.2,0.5,2.3,1.2,3.2c0.7,0.9,1.6,1.7,2.7,2.3
		c1.1,0.6,2.4,1.1,3.8,1.4c1.4,0.3,3,0.4,4.6,0.4c3.5,0,7-0.7,10.5-2.1c0.6-0.3,1.3-0.6,1.9-0.8s1.2-0.7,1.8-1.1L251.4,70.2z"/>
	<path class="st0" d="M250.6,60c0,0.4-0.1,0.8-0.3,1c-0.2,0.2-0.4,0.3-0.7,0.3c-0.3,0-0.6-0.1-0.9-0.4c-0.3-0.3-0.5-0.7-0.5-1.2
		c-0.1-0.2,0-0.4,0.1-0.6c0.2-0.4,0.6-0.6,1-0.6c0.4,0,0.7,0.2,1,0.5C250.5,59.1,250.6,59.5,250.6,60z M278.6,70.2
		c-0.5,0.4-1.1,0.9-1.8,1.3c-0.7,0.4-1.3,0.8-2,1c-2.4,1.1-4.8,1.9-7.1,2.3c-2.3,0.5-4.4,0.7-6.4,0.7c-3.3,0-6-0.7-8-2.1
		c-2.1-1.4-3.1-3.6-3.1-6.5c0-0.2,0.1-0.3,0.3-0.5c0.2-0.2,0.5-0.3,0.7-0.3c0.2,0,0.3,0.1,0.3,0.2c0.1,1.2,0.5,2.3,1.2,3.2
		c0.7,0.9,1.6,1.7,2.7,2.3c1.1,0.6,2.4,1.1,3.8,1.4c1.4,0.3,3,0.4,4.6,0.4c3.5,0,7-0.7,10.5-2.1c0.6-0.3,1.3-0.6,1.9-0.8
		c0.6-0.3,1.2-0.7,1.8-1.1L278.6,70.2z"/>
	<path class="st0" d="M311.7,70.2c-1.2,0.9-2.5,1.7-4,2.4c-1.5,0.7-3.2,1.3-4.9,1.8c-1.7,0.5-3.5,0.9-5.3,1.1
		c-1.8,0.3-3.5,0.4-5.1,0.4c-2.6,0-4.8-0.4-6.5-1c-1.7-0.7-2.6-1.8-2.6-3.3c0-0.6,0.3-1,0.8-1c0.2,0,0.4,0.1,0.7,0.2
		c0.3,0.1,0.5,0.3,0.7,0.6c0.3,0.3,0.8,0.6,1.4,0.9c0.7,0.4,1.5,0.5,2.6,0.5c1.4,0,2.5-0.3,3.3-0.8c0.8-0.6,1.1-1.3,1.1-2.3
		c0-1-0.4-1.7-1.3-2.3c-0.9-0.6-2-0.9-3.4-0.9c-2,0-3.8,0.4-5.6,1.1c-1.8,0.7-3.6,1.8-5.4,3.2l-0.4-0.6c1-0.8,2.1-1.6,3-2.3
		c1-0.7,2-1.3,3-1.8c1-0.5,2-0.9,3.1-1.2c1.1-0.3,2.2-0.4,3.5-0.4c1.5,0,2.9,0.4,4.1,1.3c1.2,0.8,1.8,1.8,1.8,2.9
		c0,0.5-0.1,1-0.4,1.4c-0.3,0.5-0.6,0.9-0.9,1.3c-0.3,0.4-0.7,0.8-1,1.1c-0.3,0.3-0.6,0.6-0.8,0.7c-0.1,0.1-0.2,0.1-0.2,0.2
		c0,0.2,0.3,0.3,1,0.4c0.6,0.1,1.5,0.2,2.5,0.2c1,0,2.1-0.1,3.4-0.2c1.3-0.1,2.6-0.3,3.9-0.6c1.3-0.3,2.6-0.7,4-1.2
		c1.3-0.5,2.5-1.2,3.6-2L311.7,70.2z"/>
	<path class="st0" d="M326.7,44.4c0,0.5-0.5,0.7-1.5,0.7h-7.7c0.1,1.1,0.2,2.2,0.3,3.2c0.1,1.1,0.1,2.2,0.1,3.2
		c0,3.4-0.4,6.6-1.2,9.7c-0.8,3.1-2,5.8-3.8,8.2c0.8,1.9,1.4,3.5,1.9,4.7c0.5,1.2,0.8,1.9,0.9,2c0.3,0.6,0.4,1.2,0.4,1.8
		c0,0.2,0,0.4-0.1,0.5c-0.1,0.1-0.4,0.3-0.8,0.4c-0.3,0-0.7-0.1-1.1-0.4c-0.4-0.3-0.7-0.8-1-1.7c-0.1-0.4-0.4-1.3-1-2.7
		c-0.6-1.5-1.2-3.2-2-5.2c-0.8-2-1.6-4.1-2.4-6.4s-1.7-4.4-2.5-6.4s-1.4-3.7-2-5.2c-0.5-1.5-0.9-2.4-1.1-2.8
		c-0.2-0.4-0.3-0.9-0.5-1.3c-0.2-0.5-0.3-1-0.5-1.5c-6.1,0.1-12.4,0.1-18.8,0.2c-6.4,0.1-12.7,0.2-18.9,0.4
		c-6.2,0.1-12.1,0.3-17.7,0.4c-5.6,0.2-10.7,0.3-15.2,0.5c-0.9,0-1.3-0.3-1.3-0.9c0-0.3,0.1-0.6,0.4-0.8c0.3-0.3,0.6-0.4,1.1-0.4
		c4.9,0,10.2,0,16-0.1c5.8-0.1,11.8-0.2,17.9-0.3c6.1-0.1,12.2-0.2,18.4-0.3c6.1-0.1,12-0.2,17.5-0.3c-0.5-1.3-0.9-2.8-1.4-4.2
		c-0.5-1.5-0.9-2.9-1.3-4.3c-0.4-1.4-0.7-2.7-0.9-4c-0.2-1.3-0.3-2.4-0.3-3.4c0-0.6,0.1-1.3,0.3-2.3c0.2-0.9,0.4-1.8,0.8-2.6
		c0.4-0.8,0.9-1.5,1.5-2.1c0.6-0.6,1.4-0.9,2.3-0.9c1.8,0,3.5,0.6,5.2,1.9s3.2,3,4.6,5.2s2.6,4.7,3.6,7.6c1,2.9,1.8,5.9,2.3,9
		c1-0.1,2-0.1,3-0.1c0.9,0,1.8,0,2.7,0c0.3,0,0.7-0.1,1.1-0.2c0.4-0.1,0.9-0.2,1.3-0.2c0.5,0,0.8,0.1,1,0.4
		C326.6,43.6,326.7,43.9,326.7,44.4z M315.8,43.4c-0.5-2.8-1.2-5.5-2.1-8c-0.9-2.6-2-4.8-3.2-6.7c-1.2-1.9-2.6-3.5-4.2-4.6
		c-1.5-1.2-3.2-1.7-4.9-1.7c-2.4,0-3.6,1.2-3.6,3.6c0,1,0.1,2.1,0.3,3.2c0.2,1.1,0.5,2.3,0.9,3.7c0.4,1.4,0.9,2.9,1.6,4.7
		c0.6,1.8,1.4,3.8,2.3,6.3c2.4,0,4.6,0,6.8-0.1C311.8,43.4,313.9,43.4,315.8,43.4z M316.5,52c0-2.3-0.2-4.6-0.5-6.9
		c-2,0-4.1,0-6.1,0s-4.1,0-6.3,0.1c0.7,1.8,1.4,3.8,2.2,5.8c0.8,2,1.6,4.1,2.3,6.1c0.8,2,1.5,4,2.3,6c0.8,1.9,1.4,3.7,2.1,5.3
		c1.4-2.2,2.4-4.6,3-7.5C316.2,58.1,316.5,55.2,316.5,52z"/>
</g>
<g>
	<path class="st0" d="M215.7,23.3c0,0.3-0.1,0.5-0.4,0.6c-2.1,0.6-3.6,1.2-4.6,1.9c-1,0.6-1.6,1.2-2,1.8c-0.4,0.6-0.6,1.1-0.7,1.5
		c-0.1,0.5-0.2,0.8-0.5,1c-0.3,0.3-0.7,0.4-1,0.4c-0.3,0-0.6-0.1-1-0.4c-0.6-0.5-1.5-1.3-2.8-2.4c-1.2-1.1-2.6-1.8-4.2-2.1
		c-0.2-0.1-0.3-0.3-0.3-0.6c0-0.3,0.2-0.4,0.5-0.4c1.4,0.2,2.6,0.5,3.8,0.9c1.1,0.4,2.2,1,3.3,1.9c0.2-0.3,0.6-0.7,1.1-1.1
		c0.6-0.5,1.2-1,2.1-1.5c0.8-0.5,1.7-0.9,2.7-1.2c1-0.3,2-0.5,3-0.5c0.5,0,0.8,0,0.9,0.1C215.7,23.1,215.7,23.1,215.7,23.3z"/>
</g>
<g>
	<path class="st0" d="M345.1,51.7c0,0.3-0.1,0.5-0.4,0.6c-2.1,0.6-3.6,1.2-4.6,1.9c-1,0.6-1.6,1.2-2,1.8c-0.4,0.6-0.6,1.1-0.7,1.5
		c-0.1,0.5-0.2,0.8-0.5,1c-0.3,0.3-0.7,0.4-1,0.4c-0.3,0-0.6-0.1-1-0.4c-0.6-0.5-1.5-1.3-2.8-2.4c-1.2-1.1-2.6-1.8-4.2-2.1
		c-0.2-0.1-0.3-0.3-0.3-0.6c0-0.3,0.2-0.4,0.5-0.4c1.4,0.2,2.6,0.5,3.8,0.9c1.1,0.4,2.2,1,3.3,1.9c0.2-0.3,0.6-0.7,1.1-1.1
		c0.6-0.5,1.2-1,2.1-1.5c0.8-0.5,1.7-0.9,2.7-1.2c1-0.3,2-0.5,3-0.5c0.5,0,0.8,0,0.9,0.1C345,51.5,345.1,51.5,345.1,51.7z"/>
</g>
</svg>
